<?xml version="1.0" encoding="UTF-8"?>
<svg width="120" height="50" viewBox="0 0 120 50" fill="none" xmlns="http://www.w3.org/2000/svg">
  <rect width="120" height="50" fill="white"/>
  <path d="M19 15H41V35H19V15Z" fill="#0066B3"/>
  <path d="M45 15H101V35H45V15Z" fill="#00AEF0"/>
  <path d="M30 22.5C30 21.1193 28.8807 20 27.5 20C26.1193 20 25 21.1193 25 22.5V27.5C25 28.8807 26.1193 30 27.5 30C28.8807 30 30 28.8807 30 27.5V22.5Z" fill="white"/>
  <path d="M35 22.5C35 21.1193 33.8807 20 32.5 20C31.1193 20 30 21.1193 30 22.5V27.5C30 28.8807 31.1193 30 32.5 30C33.8807 30 35 28.8807 35 27.5V22.5Z" fill="white"/>
  <path d="M55.336 20.192V21.64H57.088V29H58.824V21.64H60.576V20.192H55.336ZM63.6893 20.192H61.9693V29H63.6893V20.192ZM68.0613 20.048C66.8453 20.048 65.8933 20.384 65.2053 21.056C64.5173 21.728 64.1733 22.688 64.1733 23.936V25.256C64.1733 26.504 64.5173 27.464 65.2053 28.136C65.8933 28.808 66.8453 29.144 68.0613 29.144C69.2773 29.144 70.2293 28.808 70.9173 28.136C71.6053 27.464 71.9493 26.504 71.9493 25.256V23.936C71.9493 22.688 71.6053 21.728 70.9173 21.056C70.2293 20.384 69.2773 20.048 68.0613 20.048ZM68.0613 21.496C68.7333 21.496 69.2453 21.696 69.5973 22.096C69.9493 22.496 70.1253 23.104 70.1253 23.92V25.272C70.1253 26.088 69.9493 26.696 69.5973 27.096C69.2453 27.496 68.7333 27.696 68.0613 27.696C67.3893 27.696 66.8773 27.496 66.5253 27.096C66.1733 26.696 65.9973 26.088 65.9973 25.272V23.92C65.9973 23.104 66.1733 22.496 66.5253 22.096C66.8773 21.696 67.3893 21.496 68.0613 21.496ZM74.0293 20.192V29H75.7493V25.816H77.3573C77.9573 25.816 78.4293 25.728 78.7733 25.552C79.1253 25.376 79.3893 25.12 79.5653 24.784C79.7413 24.448 79.8533 24.064 79.9013 23.632C79.9573 23.2 79.9853 22.728 79.9853 22.216C79.9853 21.704 79.9573 21.232 79.9013 20.8C79.8533 20.368 79.7413 19.984 79.5653 19.648C79.3893 19.312 79.1253 19.056 78.7733 18.88C78.4293 18.704 77.9573 18.616 77.3573 18.616H74.0293V20.192ZM75.7493 21.496V20.064H77.0133C77.4053 20.064 77.6853 20.144 77.8533 20.304C78.0213 20.464 78.1253 20.68 78.1653 20.952C78.2053 21.224 78.2253 21.528 78.2253 21.864C78.2253 22.152 78.2133 22.424 78.1893 22.68C78.1653 22.936 78.1093 23.152 78.0213 23.328C77.9413 23.504 77.8053 23.64 77.6133 23.736C77.4293 23.832 77.1733 23.88 76.8453 23.88H75.7493V21.496ZM83.2313 20.192H81.5113V29H83.2313V20.192ZM86.2633 22.376C86.2633 22.088 86.2793 21.84 86.3113 21.632C86.3513 21.424 86.4153 21.256 86.5033 21.128C86.5913 21 86.7033 20.904 86.8393 20.84C86.9833 20.776 87.1673 20.744 87.3913 20.744C87.8073 20.744 88.1033 20.848 88.2793 21.056C88.4553 21.256 88.5433 21.592 88.5433 22.064H90.2633C90.2633 21.024 89.9993 20.28 89.4713 19.832C88.9433 19.376 88.2553 19.148 87.4073 19.148C86.4953 19.148 85.7753 19.4 85.2473 19.904C84.7193 20.408 84.4553 21.192 84.4553 22.256V26.936C84.4553 28 84.7193 28.784 85.2473 29.288C85.7753 29.792 86.4953 30.044 87.4073 30.044C88.2553 30.044 88.9433 29.816 89.4713 29.36C89.9993 28.904 90.2633 28.16 90.2633 27.128H88.5433C88.5433 27.592 88.4553 27.928 88.2793 28.136C88.1033 28.336 87.8073 28.436 87.3913 28.436C87.1673 28.436 86.9833 28.404 86.8393 28.34C86.7033 28.276 86.5913 28.184 86.5033 28.064C86.4153 27.936 86.3513 27.768 86.3113 27.56C86.2793 27.352 86.2633 27.104 86.2633 26.816V22.376ZM95.7592 20.048C95.1272 20.048 94.5992 20.2 94.1752 20.504C93.7592 20.808 93.4392 21.208 93.2152 21.704H93.1912V20.192H91.5192V29H93.2392V24.168C93.2392 23.256 93.3912 22.584 93.6952 22.152C94.0072 21.712 94.4552 21.492 95.0392 21.492C95.4872 21.492 95.8112 21.624 96.0112 21.888C96.2192 22.152 96.3232 22.568 96.3232 23.136V29H98.0432V22.952C98.0432 21.944 97.8272 21.168 97.3952 20.624C96.9712 20.24 96.4392 20.048 95.7592 20.048Z" fill="white"/>
</svg>